<svg width="54" height="54" viewBox="0 0 54 54" fill="none" xmlns="http://www.w3.org/2000/svg">
<path d="M20.5389 36.7037C20.5545 36.7199 20.5648 36.7411 20.5683 36.7642C20.5718 36.7872 20.5683 36.8109 20.5583 36.8316C20.0796 37.8392 19.5248 38.7966 18.9022 39.7037L20.5029 36.6796C20.5163 36.6848 20.5286 36.693 20.5389 36.7037ZM20.5389 36.7037L20.4666 36.7732L20.4614 36.7781L20.4587 36.7808L20.4566 36.7828L20.4562 36.7831L20.1784 37.0501C20.1195 36.9889 20.0853 36.9141 20.0739 36.8391C20.0627 36.7649 20.0733 36.6876 20.1067 36.6171M20.5389 36.7037L20.1067 36.6171M20.1067 36.6171L20.1077 36.615L20.1067 36.6171ZM31.5807 13.9311C33.6469 14.3563 35.6585 15.051 37.5712 16.0007C41.0484 21.6263 42.7558 27.9445 42.1016 35.2C39.8277 36.9778 37.3049 38.346 34.6313 39.2532C34.1791 38.5463 33.7607 37.8092 33.3834 37.0452C34.1429 36.7181 34.8795 36.3326 35.5877 35.8918L35.5877 35.8918L35.5917 35.8892C35.6785 35.834 35.7472 35.7591 35.7948 35.6744C35.8424 35.5898 35.8685 35.4963 35.8731 35.4022C35.8777 35.308 35.8608 35.2129 35.8223 35.1247C35.7844 35.0378 35.7256 34.9583 35.648 34.8953C35.4865 34.763 35.3251 34.6245 35.1717 34.4863L35.1718 34.4863L35.1646 34.4801C35.0803 34.4069 34.975 34.3566 34.8592 34.3395C34.7431 34.3223 34.6259 34.3399 34.5213 34.3881L34.5213 34.388L34.5097 34.3937C29.448 36.8889 23.925 36.8613 18.8225 34.3107L18.8226 34.3105L18.8112 34.3052C18.7073 34.2565 18.5908 34.2384 18.4752 34.2549C18.3598 34.2714 18.2549 34.321 18.1707 34.3933L18.1706 34.3933L18.1658 34.3976C18.0107 34.5344 17.8474 34.6716 17.6841 34.8025L17.684 34.8024L17.6765 34.8087C17.6036 34.8695 17.548 34.945 17.5111 35.0273C17.4508 35.1594 17.4396 35.308 17.4776 35.4463C17.5161 35.5864 17.6056 35.7159 17.7394 35.7999C18.4449 36.2444 19.1773 36.6374 19.9316 36.9763C19.5514 37.7374 19.126 38.4688 18.6592 39.1703C15.9992 38.2327 13.4944 36.8384 11.2414 35.0392C10.7587 28.7479 11.9159 22.3957 15.9661 15.8894C17.8893 14.9569 19.9102 14.2822 21.9831 13.8804C22.2255 14.368 22.4463 14.868 22.6448 15.3787L22.7909 15.7545L23.1892 15.6914C25.5699 15.3138 27.9894 15.3264 30.366 15.7288L30.7638 15.7962L30.9137 15.4216C31.0957 14.9668 31.343 14.4073 31.5807 13.9311ZM18.9534 39.2719L18.9499 39.2707C18.9511 39.2711 18.9523 39.2715 18.9534 39.2719ZM18.0046 27.8468C17.9936 29.9545 19.425 31.8483 21.3687 31.8585C23.338 31.8687 24.7621 29.9888 24.7744 27.8852C24.8104 25.7843 23.3894 23.8786 21.4104 23.8683C19.44 23.858 18.0156 25.74 18.0046 27.8468ZM28.6696 27.9025C28.6586 30.0105 30.0921 31.904 32.0336 31.9141C34.0161 31.9245 35.4269 30.0432 35.4394 27.9411C35.4774 25.8394 34.0538 23.9343 32.0754 23.924C30.105 23.9137 28.6806 25.7957 28.6696 27.9025Z" fill="#999999" stroke="#999999"/>
</svg>
