<svg width="26" height="25" viewBox="0 0 26 25" fill="none" xmlns="http://www.w3.org/2000/svg">
<path d="M17.7625 21C16.2008 20.9986 14.6634 20.6127 13.2863 19.8762L12.8613 19.6401C9.92509 18.0615 7.51788 15.6542 5.93921 12.718L5.70312 12.2931C4.94747 10.908 4.5483 9.35678 4.54157 7.77905V7.14634C4.54117 6.64295 4.74173 6.16024 5.09873 5.80535L6.69469 4.2094C6.84968 4.0532 7.06847 3.97791 7.28676 4.00566C7.50505 4.03341 7.69805 4.16104 7.80903 4.35105L9.93382 7.99625C10.1487 8.36728 10.0866 8.8365 9.78273 9.13892L7.9979 10.9237C7.84968 11.0703 7.81513 11.2968 7.91291 11.4809L8.24343 12.1042C9.43052 14.3031 11.2363 16.1056 13.4374 17.2887L14.0606 17.6287C14.2448 17.7264 14.4712 17.6919 14.6178 17.5437L16.4026 15.7588C16.7051 15.4549 17.1743 15.3929 17.5453 15.6077L21.1905 17.7325C21.3805 17.8435 21.5082 18.0365 21.5359 18.2548C21.5637 18.4731 21.4884 18.6919 21.3322 18.8469L19.7362 20.4428C19.3813 20.7998 18.8986 21.0004 18.3952 21H17.7625Z" fill="#999999"/>
</svg>
