<svg width="54" height="54" viewBox="0 0 54 54" fill="none" xmlns="http://www.w3.org/2000/svg">
<path d="M8.16787 31.6535L8.18547 31.9006C8.29646 33.2466 8.46414 34.5858 8.72103 35.568C8.93129 36.3683 9.3489 37.0994 9.93203 37.6883C10.5152 38.2771 11.2433 38.7029 12.0436 38.923C13.1915 39.2395 15.6854 39.4383 18.3049 39.5672L18.3295 39.0678M8.16787 31.6535L9.30065 17.5206C9.49572 16.807 9.87566 16.1568 10.4026 15.6354C10.9294 15.1141 11.5845 14.7397 12.3025 14.55C13.3907 14.2669 15.8257 14.0918 18.4623 13.9872C18.4626 13.9872 18.4629 13.9872 18.4632 13.9871L18.8595 13.9729L18.8627 13.9728L19.2656 13.961L19.4686 13.955L19.4716 13.9549L19.8732 13.9406C22.1142 13.8805 24.356 13.8523 26.5978 13.8561L27.0525 13.8584L27.5525 13.861L27.5525 13.86C28.7338 13.8724 31.4251 13.911 34.1888 14.0233C35.7008 14.0847 37.2301 14.168 38.5437 14.2806C39.8689 14.3942 40.9377 14.535 41.5506 14.7025C42.2665 14.9003 42.9176 15.2818 43.439 15.8086C43.9604 16.3355 44.3337 16.9892 44.522 17.7045C44.7451 18.5588 44.9035 19.7098 45.0096 20.9217L45.0098 20.9235L45.0316 21.1626L45.0321 21.1683L45.0801 21.7705L45.0804 21.7744L45.0975 22.0124C45.0975 22.0129 45.0976 22.0134 45.0976 22.014C45.2385 24.1455 45.247 26.1434 45.247 26.5819L45.2461 26.756C45.2414 27.211 45.209 29.3447 45.0289 31.5632C45.0289 31.5633 45.0289 31.5634 45.0289 31.5635L45.0092 31.8049L45.0088 31.8101L44.9867 32.049C44.8623 33.3875 44.6837 34.6868 44.4284 35.6251C44.2334 36.3387 43.8534 36.9889 43.3265 37.5104C42.7996 38.0318 42.1442 38.4062 41.426 38.5959C40.7905 38.7626 39.6688 38.8953 38.2832 38.9963C36.9098 39.0964 35.315 39.1631 33.7561 39.2073C30.6389 39.2957 27.6825 39.2938 26.9637 39.2912L26.6294 39.2895C25.9032 39.2857 22.8929 39.2559 19.7382 39.1315L19.3428 39.1155L19.3375 39.1153L19.1375 39.105L19.135 39.1049L18.7314 39.0863L18.3295 39.0678M8.16787 31.6535L8.15027 31.4088L8.16787 31.6535ZM18.3295 39.0678C18.3293 39.0678 18.3291 39.0678 18.3289 39.0678M18.3295 39.0678L18.3289 39.0678M18.3289 39.0678C15.692 38.938 13.2598 38.7397 12.1765 38.441L12.1762 38.4409C11.4601 38.2439 10.8088 37.863 10.2873 37.3364C9.76587 36.8099 9.39259 36.1563 9.20465 35.4411C8.95947 34.5034 8.7945 33.2012 8.684 31.8622L8.66661 31.618L8.66658 31.6176L8.64912 31.3749C8.6491 31.3746 8.64907 31.3743 8.64905 31.3739C8.5417 29.7914 8.4859 28.2058 8.48172 26.6196L8.48321 26.3346C8.49058 25.8284 8.51856 24.095 8.65482 22.1846C8.65483 22.1844 8.65485 22.1842 8.65486 22.184L8.67257 21.9429L8.6726 21.9429L8.67292 21.9378L8.68034 21.8203L8.69995 21.5825L8.7001 21.5806L8.75464 20.976L8.77923 20.7344L8.77941 20.7326C8.8982 19.5215 9.06873 18.37 9.30061 17.5207L18.3289 39.0678ZM23.371 20.4542L22.6232 20.017L22.6187 20.8833L22.5595 32.2155L22.555 33.0814L23.3072 32.6525L33.1489 27.0399L33.9011 26.611L33.1536 26.174L23.371 20.4542Z" fill="#999999" stroke="#999999"/>
</svg>
