<svg width="54" height="54" viewBox="0 0 54 54" fill="none" xmlns="http://www.w3.org/2000/svg">
<path d="M9.17044 15.0486C9.4084 13.992 9.99337 13.0486 10.8295 12.3729C11.6657 11.6972 12.7035 11.3293 13.773 11.3294L42.0965 11.3294C43.166 11.3293 44.2038 11.6972 45.0399 12.3729C45.8761 13.0486 46.4611 13.992 46.699 15.0486L27.9347 26.6701L9.17044 15.0486ZM9.05243 17.78L9.05243 34.771L22.7492 26.2611L9.05243 17.78ZM25.0103 27.6651L9.50324 37.2967C9.88638 38.1154 10.4911 38.8069 11.247 39.2909C12.0029 39.7749 12.8789 40.0314 13.773 40.0305L42.0965 40.0305C42.9905 40.0307 43.8661 39.7736 44.6216 39.2893C45.3771 38.8049 45.9813 38.1131 46.3639 37.2943L30.8568 27.6627L27.9347 29.4733L25.0103 27.6627L25.0103 27.6651ZM33.1203 26.2635L46.8171 34.771L46.8171 17.78L33.1203 26.2611L33.1203 26.2635Z" fill="#999999"/>
</svg>
