<svg width="54" height="54" viewBox="0 0 54 54" fill="none" xmlns="http://www.w3.org/2000/svg">
<path d="M41.6788 26.5729C41.6788 30.5792 40.0873 34.4214 37.2544 37.2543C34.4215 40.0872 30.5792 41.6787 26.5729 41.6787C22.5666 41.6787 18.7244 40.0872 15.8915 37.2543C13.0586 34.4214 11.4671 30.5792 11.4671 26.5729C11.4671 22.5666 13.0586 18.7243 15.8915 15.8914C18.7244 13.0585 22.5666 11.467 26.5729 11.467C30.5792 11.467 34.4215 13.0585 37.2544 15.8914C40.0873 18.7243 41.6788 22.5666 41.6788 26.5729V26.5729ZM27.1148 22.6189C25.6458 23.2307 22.7077 24.4958 18.3044 26.4143C17.5906 26.6975 17.2148 26.977 17.1809 27.2489C17.1242 27.7077 17.7001 27.889 18.4837 28.1363L18.8142 28.2402C19.5846 28.4913 20.6231 28.784 21.1613 28.7953C21.6522 28.8067 22.1979 28.6065 22.8002 28.1911C26.9147 25.4135 29.039 24.0106 29.1711 23.9804C29.2655 23.9577 29.3977 23.9313 29.4846 24.0106C29.5733 24.088 29.5639 24.2372 29.5544 24.2768C29.4978 24.5204 27.2376 26.6201 26.0688 27.7077C25.7043 28.0476 25.4456 28.2874 25.3928 28.3422C25.2764 28.4611 25.158 28.5782 25.0378 28.6934C24.3203 29.3845 23.784 29.9018 25.0661 30.7478C25.6836 31.1556 26.1783 31.4898 26.6711 31.826C27.2074 32.1923 27.7436 32.5567 28.4385 33.0137C28.6141 33.1269 28.784 33.2497 28.9483 33.3667C29.5733 33.8124 30.1379 34.2127 30.8309 34.1485C31.235 34.1107 31.6523 33.7331 31.8637 32.6001C32.3641 29.9245 33.3479 24.1295 33.5745 21.7409C33.5883 21.5423 33.5801 21.3429 33.5499 21.1461C33.5322 20.9874 33.4553 20.8411 33.3347 20.7364C33.1629 20.6178 32.9581 20.5563 32.7493 20.5608C32.1829 20.5702 31.3086 20.8742 27.1148 22.6189V22.6189Z" fill="#999999"/>
</svg>
